<?xml version="1.0" encoding="utf-8"?>
<!-- Generator: Adobe Illustrator 22.1.0, SVG Export Plug-In . SVG Version: 6.00 Build 0)  -->
<svg version="1.1" id="Capa_1" xmlns="http://www.w3.org/2000/svg" xmlns:xlink="http://www.w3.org/1999/xlink" x="0px" y="0px"
	 viewBox="0 0 511.9 511.9" style="enable-background:new 0 0 511.9 511.9;" xml:space="preserve">
<style type="text/css">
	.st0{fill:#F9A0DC;}
	.st1{fill:#FCDEEF;}
	.st2{fill:#E88ED3;}
	.st3{fill:#FFFFFF;}
	.st4{fill:#FF1493;}
</style>
<g transform="translate(1)">
	<path class="st0" d="M498.6,52.6c-2.2-1.6-5.1-1.9-7.7-0.9l-14.3,5.8L58.7,226.2L7.5,247.4l154.7,62.6h0.2v0.1L202,448.5l1.8,6.1
		c0.8,2.9,3.1,5.2,6.1,5.9c2.9,0.8,6-0.1,8.2-2.2l79.1-80.9l7.1-7.3l108.3,42.6l8,3.2c4.8,2,10.2,1.6,14.7-1
		c4.5-2.6,7.6-7.1,8.3-12.2l58.7-341.2C503,58,501.5,54.5,498.6,52.6z M248.1,346.7l0.3,0.1l-0.4,0.5L248.1,346.7z"/>
	<path class="st1" d="M476.6,57.5L58.7,226.2L7.5,247.4l154.7,62.6h0.2v0.1L202,448.5l76.6-78.3l18.5,7.3l7.1-7.3l108.3,42.6
		c2.9-2.6,4.9-6.1,5.5-10l58.7-341.2C476.9,60.2,476.9,58.8,476.6,57.5z M222.4,347.3l0.2-0.6l0.3,0.1L222.4,347.3z"/>
	<path class="st2" d="M304.2,370.1L218,458.3c1-1.1,1.7-2.4,2.1-3.8L248,347.3l0.4-0.5l37,15.5l16.6,7L304.2,370.1z"/>
	<path class="st1" d="M499.2,53.1L248.4,346.7l-0.3-0.1l-0.2,0.6l-27.8,107.2c-0.4,1.4-1.1,2.7-2.1,3.8c-2.1,2.1-5.2,3-8.2,2.2
		c-2.9-0.8-5.2-3-6.1-5.9l-41.4-144.5v-0.1h-0.1V310L499.2,53.1z"/>
	<g>
		<path class="st3" d="M438.2,412.7L438.2,412.7l-108.4-42.6l-7.1,7.3l89.8,35.3l8,3.2C426.5,418.4,433.4,417.1,438.2,412.7z"/>
		<path class="st3" d="M162.3,310.1L162.3,310.1L162.3,310.1L202,448.5l1.8,6.1c0.8,2.9,3.1,5.2,6.1,5.9c2.9,0.8,6-0.1,8.2-2.2
			l9.6-9.8L188,310.1v-0.1h-0.2L33.1,247.4l51.2-21.2L502.1,57.6c-0.5-1.8-1.5-3.3-2.9-4.5h0h-0.1c-0.2-0.2-0.4-0.4-0.6-0.5
			c-2.2-1.6-5.1-1.9-7.7-0.9l-14.3,5.8L58.7,226.2L7.5,247.4L162.3,310.1L162.3,310.1z"/>
	</g>
</g>
<g>
	<polygon class="st3" points="28.7,246.4 131.6,288 166.4,302.1 160,317.9 125.2,303.9 22.3,262.2 	"/>
	<g>
		<path class="st4" d="M28.7,246.4l-17.1-6.9c-4.4-1.7-9.3,0.4-11.1,4.7c-1.8,4.3,0.3,9.3,4.7,11.1l17.1,6.9L54,275
			c4.4,1.7,9.3-0.4,11.1-4.7s-0.3-9.3-4.7-11.1L28.7,246.4C28.7,246.4,28.7,246.4,28.7,246.4z"/>
		<path class="st4" d="M92,272c-2.1-0.8-4.4-0.8-6.5,0l-1.4,0.8c-0.5,0.3-0.9,0.7-1.3,1.1c-0.4,0.4-0.8,0.8-1.1,1.2
			c-0.3,0.5-0.6,1-0.8,1.5c-0.8,2.1-0.8,4.4,0,6.5c1.9,4.2,6.9,6.2,11.2,4.5c1-0.5,1.9-1.1,2.7-1.9c0.8-0.8,1.4-1.7,1.9-2.8
			c0.9-2.1,0.9-4.4,0-6.5C95.8,274.5,94.1,272.9,92,272L92,272z"/>
		<path class="st4" d="M173.2,313.3l207.4-154.5c2.6-1.7,4.1-4.8,3.8-8c-0.3-3.2-2.3-5.9-5.3-7.1c-2.9-1.2-6.3-0.7-8.7,1.4
			L161.9,300.3l-38.2-15.5c-4.4-1.8-9.3,0.3-11.1,4.7s0.3,9.3,4.7,11.1l39,15.8l40.3,140.6c2.1,7.3,8.8,12.3,16.3,12.2h0.2
			c4.1-0.1,8.1-1.7,11.1-4.5c0.3-0.2,0.6-0.4,0.9-0.6l82.5-84.3l110.6,43.9c7.1,3,15.2,2.6,21.9-1.2c6.9-3.8,11.7-10.7,12.9-18.5
			l27.9-186.7l30.7-154.1c1.3-6.2-0.9-12.6-5.8-16.6c-4.8-4-11.3-5-17.1-2.7L56.5,218.3c-4.4,1.8-6.5,6.7-4.7,11.1s6.7,6.5,11.1,4.7
			L475.7,67.5L270.9,309.1c-3,3.6-2.6,9,1,12c3.6,3,9,2.6,12-1L491.9,74.9l-27.8,139.5l-28,187c-0.4,2.6-2,4.9-4.3,6.2
			c-2.2,1.2-4.9,1.4-7.2,0.3l-116.4-45.8l-55.8-23.4c-4.3-1.8-9.3,0.2-11.2,4.6c-0.2,0.6-0.3,1.2-0.4,1.8h-0.2L213,452.2
			L173.2,313.3z M254.9,358.4l28.2,11.8l7.3,2.9l-53.5,54.7L254.9,358.4z"/>
	</g>
</g>
</svg>
