<?xml version="1.0" encoding="UTF-8"?>
<svg width="255px" height="39px" viewBox="0 0 255 39" version="1.1" xmlns="http://www.w3.org/2000/svg" xmlns:xlink="http://www.w3.org/1999/xlink">
    <!-- Generator: Sketch 52.6 (67491) - http://www.bohemiancoding.com/sketch -->
    <title>Group</title>
    <desc>Created with Sketch.</desc>
    <defs>
        <linearGradient x1="0%" y1="0%" x2="101.999998%" y2="100.999999%" id="linearGradient-1">
            <stop stop-color="#800080" offset="0%"></stop>
            <stop stop-color="#FF1493" offset="100%"></stop>
        </linearGradient>
        <linearGradient x1="0%" y1="0%" x2="101.999998%" y2="100.999999%" id="linearGradient-2">
            <stop stop-color="#800080" offset="0%"></stop>
            <stop stop-color="#C00A8A" offset="61.068461%"></stop>
            <stop stop-color="#FF1493" offset="100%"></stop>
        </linearGradient>
    </defs>
    <g id="Page-1" stroke="none" stroke-width="1" fill="none" fill-rule="evenodd">
        <g id="home-copy-3" transform="translate(-386.000000, -63.000000)" fill-rule="nonzero">
            <g id="Group" transform="translate(386.000000, 63.000000)">
                <path d="M60.0121006,30.732 L64.4761006,6.54 C64.5481006,6.252 64.8361006,6 65.1241006,6 L65.7001006,6 C65.9161006,6 66.2401006,6.18 66.3121006,6.396 L73.8361006,24.792 L73.9801006,24.792 L81.4681006,6.396 C81.5401006,6.18 81.8281006,6 82.0801006,6 L82.6561006,6 C82.9441006,6 83.2321006,6.252 83.3041006,6.54 L87.7321006,30.732 C87.8401006,31.236 87.5881006,31.56 87.0841006,31.56 L84.7441006,31.56 C84.4201006,31.56 84.1321006,31.308 84.0601006,31.056 L81.3961006,14.964 C81.3601006,14.964 81.2881006,14.964 81.2881006,14.964 L74.8081006,31.524 C74.7361006,31.74 74.5201006,31.92 74.1961006,31.92 L73.5481006,31.92 C73.2601006,31.92 73.0081006,31.74 72.9361006,31.524 L66.4201006,14.964 C66.3841006,14.964 66.3121006,14.964 66.2761006,14.964 L63.6841006,31.056 C63.6481006,31.308 63.3241006,31.56 63.0361006,31.56 L60.6961006,31.56 C60.1921006,31.56 59.9401006,31.236 60.0121006,30.732 Z M93.0241006,30.876 L93.0241006,7.044 C93.0241006,6.684 93.3121006,6.36 93.7081006,6.36 L108.108101,6.36 C108.504101,6.36 108.792101,6.684 108.792101,7.044 L108.792101,9.06 C108.792101,9.42 108.504101,9.744 108.108101,9.744 L96.7321006,9.744 L96.7321006,17.088 L106.344101,17.088 C106.704101,17.088 107.028101,17.412 107.028101,17.772 L107.028101,19.788 C107.028101,20.184 106.704101,20.472 106.344101,20.472 L96.7321006,20.472 L96.7321006,28.212 L108.108101,28.212 C108.504101,28.212 108.792101,28.536 108.792101,28.896 L108.792101,30.876 C108.792101,31.236 108.504101,31.56 108.108101,31.56 L93.7081006,31.56 C93.3121006,31.56 93.0241006,31.236 93.0241006,30.876 Z M112.284101,18.996 C112.284101,11.796 118.080101,6 125.244101,6 C128.700101,6 131.544101,7.26 133.992101,9.348 C134.280101,9.636 134.316101,10.068 134.028101,10.356 C133.488101,10.932 132.948101,11.472 132.408101,12.048 C132.120101,12.372 131.832101,12.336 131.472101,12.012 C129.780101,10.536 127.548101,9.564 125.352101,9.564 C120.240101,9.564 116.316101,13.884 116.316101,18.924 C116.316101,23.928 120.240101,28.248 125.352101,28.248 C128.340101,28.248 130.392101,27.168 130.752101,27.024 L130.752101,22.992 L127.224101,22.992 C126.828101,22.992 126.540101,22.704 126.540101,22.344 L126.540101,20.256 C126.540101,19.86 126.828101,19.572 127.224101,19.572 L133.776101,19.572 C134.136101,19.572 134.424101,19.896 134.424101,20.256 C134.424101,23.136 134.460101,26.088 134.460101,28.968 C134.460101,29.148 134.316101,29.436 134.172101,29.544 C134.172101,29.544 130.464101,31.92 125.244101,31.92 C118.080101,31.92 112.284101,26.196 112.284101,18.996 Z M138.276101,18.996 C138.276101,11.796 144.072101,6 151.236101,6 C154.692101,6 157.536101,7.26 159.984101,9.348 C160.272101,9.636 160.308101,10.068 160.020101,10.356 C159.480101,10.932 158.940101,11.472 158.400101,12.048 C158.112101,12.372 157.824101,12.336 157.464101,12.012 C155.772101,10.536 153.540101,9.564 151.344101,9.564 C146.232101,9.564 142.308101,13.884 142.308101,18.924 C142.308101,23.928 146.232101,28.248 151.344101,28.248 C154.332101,28.248 156.384101,27.168 156.744101,27.024 L156.744101,22.992 L153.216101,22.992 C152.820101,22.992 152.532101,22.704 152.532101,22.344 L152.532101,20.256 C152.532101,19.86 152.820101,19.572 153.216101,19.572 L159.768101,19.572 C160.128101,19.572 160.416101,19.896 160.416101,20.256 C160.416101,23.136 160.452101,26.088 160.452101,28.968 C160.452101,29.148 160.308101,29.436 160.164101,29.544 C160.164101,29.544 156.456101,31.92 151.236101,31.92 C144.072101,31.92 138.276101,26.196 138.276101,18.996 Z M166.104101,30.876 L166.104101,7.044 C166.104101,6.684 166.428101,6.36 166.788101,6.36 L169.164101,6.36 C169.524101,6.36 169.848101,6.684 169.848101,7.044 L169.848101,30.876 C169.848101,31.236 169.524101,31.56 169.164101,31.56 L166.788101,31.56 C166.428101,31.56 166.104101,31.236 166.104101,30.876 Z M176.832101,30.876 L176.832101,7.044 C176.832101,6.684 177.120101,6.36 177.516101,6.36 L191.916101,6.36 C192.312101,6.36 192.600101,6.684 192.600101,7.044 L192.600101,9.06 C192.600101,9.42 192.312101,9.744 191.916101,9.744 L180.540101,9.744 L180.540101,17.088 L190.152101,17.088 C190.512101,17.088 190.836101,17.412 190.836101,17.772 L190.836101,19.788 C190.836101,20.184 190.512101,20.472 190.152101,20.472 L180.540101,20.472 L180.540101,28.212 L191.916101,28.212 C192.312101,28.212 192.600101,28.536 192.600101,28.896 L192.600101,30.876 C192.600101,31.236 192.312101,31.56 191.916101,31.56 L177.516101,31.56 C177.120101,31.56 176.832101,31.236 176.832101,30.876 Z M204.120101,18.996 C204.120101,11.796 209.844101,6 217.044101,6 C224.244101,6 230.004101,11.796 230.004101,18.996 C230.004101,24.108 227.016101,28.536 222.660101,30.696 L227.016101,37.608 C227.340101,38.112 227.016101,38.688 226.440101,38.688 L223.632101,38.688 C223.488101,38.688 223.200101,38.58 223.056101,38.328 L219.168101,31.776 C218.484101,31.884 217.692101,31.92 217.044101,31.92 C209.844101,31.92 204.120101,26.196 204.120101,18.996 Z M207.720101,18.996 C207.720101,24.144 211.932101,28.32 217.044101,28.32 C222.192101,28.32 226.404101,24.144 226.404101,18.996 C226.404101,13.884 222.192101,9.6 217.044101,9.6 C211.932101,9.6 207.720101,13.884 207.720101,18.996 Z M234.864101,22.164 L234.864101,7.044 C234.864101,6.684 235.188101,6.36 235.548101,6.36 L237.960101,6.36 C238.356101,6.36 238.644101,6.684 238.644101,7.044 L238.644101,21.912 C238.644101,25.512 240.948101,28.32 244.620101,28.32 C248.328101,28.32 250.668101,25.548 250.668101,21.984 L250.668101,7.044 C250.668101,6.684 250.956101,6.36 251.352101,6.36 L253.764101,6.36 C254.124101,6.36 254.448101,6.684 254.448101,7.044 L254.448101,22.164 C254.448101,27.636 250.308101,31.92 244.620101,31.92 C238.968101,31.92 234.864101,27.636 234.864101,22.164 Z" id="Combined-Shape" fill="url(#linearGradient-1)"></path>
                <path d="M28.8775153,34.4704334 L26.1033005,27.6040107 C28.2006406,25.8690557 29.681521,23.3759386 30.0901923,20.4680909 C30.9591733,14.28497 26.6512117,8.56811194 20.4680909,7.69913097 C14.28497,6.83015001 8.56811194,11.1381116 7.69913097,17.3212324 C6.83015001,23.5043533 11.1381116,29.2212113 17.3212324,30.0901923 C18.0185856,30.1881989 18.710008,30.2203543 19.3892135,30.1913954 L22.1825852,37.105233 C20.2953323,37.4456446 18.3225912,37.4960725 16.3199593,37.2146209 C6.20212515,35.7926521 -0.847266485,26.4377934 0.574702368,16.3199593 C1.99667122,6.20212515 11.3515299,-0.847266485 21.469364,0.574702368 C31.5871981,1.99667122 38.6365898,11.3515299 37.2146209,21.469364 C36.4334499,27.0276843 33.2581725,31.6599641 28.8775153,34.4704334 Z" id="Combined-Shape" fill="url(#linearGradient-2)"></path>
            </g>
        </g>
    </g>
</svg>