<?xml version="1.0" encoding="UTF-8"?>
<svg width="255px" height="39px" viewBox="0 0 255 39" version="1.1" xmlns="http://www.w3.org/2000/svg" xmlns:xlink="http://www.w3.org/1999/xlink">
    <!-- Generator: Sketch 52.6 (67491) - http://www.bohemiancoding.com/sketch -->
    <title>Group</title>
    <desc>Created with Sketch.</desc>
    <defs>
        <linearGradient x1="0%" y1="0%" x2="101.999998%" y2="100.999999%" id="linearGradient-1">
            <stop stop-color="#800080" offset="0%"></stop>
            <stop stop-color="#FF1493" offset="100%"></stop>
        </linearGradient>
    </defs>
    <g id="Page-1" stroke="none" stroke-width="1" fill="none" fill-rule="evenodd">
        <g id="1920-copy-2" transform="translate(-386.000000, -63.000000)" fill-rule="nonzero">
            <g id="Group" transform="translate(386.000000, 63.000000)">
                <path d="M60.0161378,30.8614273 L64.4801378,6.66942731 C64.5521378,6.38142731 64.8401378,6.12942731 65.1281378,6.12942731 L65.7041378,6.12942731 C65.9201378,6.12942731 66.2441378,6.30942731 66.3161378,6.52542731 L73.8401378,24.9214273 L73.9841378,24.9214273 L81.4721378,6.52542731 C81.5441378,6.30942731 81.8321378,6.12942731 82.0841378,6.12942731 L82.6601378,6.12942731 C82.9481378,6.12942731 83.2361378,6.38142731 83.3081378,6.66942731 L87.7361378,30.8614273 C87.8441378,31.3654273 87.5921378,31.6894273 87.0881378,31.6894273 L84.7481378,31.6894273 C84.4241378,31.6894273 84.1361378,31.4374273 84.0641378,31.1854273 L81.4001378,15.0934273 C81.3641378,15.0934273 81.2921378,15.0934273 81.2921378,15.0934273 L74.8121378,31.6534273 C74.7401378,31.8694273 74.5241378,32.0494273 74.2001378,32.0494273 L73.5521378,32.0494273 C73.2641378,32.0494273 73.0121378,31.8694273 72.9401378,31.6534273 L66.4241378,15.0934273 C66.3881378,15.0934273 66.3161378,15.0934273 66.2801378,15.0934273 L63.6881378,31.1854273 C63.6521378,31.4374273 63.3281378,31.6894273 63.0401378,31.6894273 L60.7001378,31.6894273 C60.1961378,31.6894273 59.9441378,31.3654273 60.0161378,30.8614273 Z M93.0281378,31.0054273 L93.0281378,7.17342731 C93.0281378,6.81342731 93.3161378,6.48942731 93.7121378,6.48942731 L108.112138,6.48942731 C108.508138,6.48942731 108.796138,6.81342731 108.796138,7.17342731 L108.796138,9.18942731 C108.796138,9.54942731 108.508138,9.87342731 108.112138,9.87342731 L96.7361378,9.87342731 L96.7361378,17.2174273 L106.348138,17.2174273 C106.708138,17.2174273 107.032138,17.5414273 107.032138,17.9014273 L107.032138,19.9174273 C107.032138,20.3134273 106.708138,20.6014273 106.348138,20.6014273 L96.7361378,20.6014273 L96.7361378,28.3414273 L108.112138,28.3414273 C108.508138,28.3414273 108.796138,28.6654273 108.796138,29.0254273 L108.796138,31.0054273 C108.796138,31.3654273 108.508138,31.6894273 108.112138,31.6894273 L93.7121378,31.6894273 C93.3161378,31.6894273 93.0281378,31.3654273 93.0281378,31.0054273 Z M112.288138,19.1254273 C112.288138,11.9254273 118.084138,6.12942731 125.248138,6.12942731 C128.704138,6.12942731 131.548138,7.38942731 133.996138,9.47742731 C134.284138,9.76542731 134.320138,10.1974273 134.032138,10.4854273 C133.492138,11.0614273 132.952138,11.6014273 132.412138,12.1774273 C132.124138,12.5014273 131.836138,12.4654273 131.476138,12.1414273 C129.784138,10.6654273 127.552138,9.69342731 125.356138,9.69342731 C120.244138,9.69342731 116.320138,14.0134273 116.320138,19.0534273 C116.320138,24.0574273 120.244138,28.3774273 125.356138,28.3774273 C128.344138,28.3774273 130.396138,27.2974273 130.756138,27.1534273 L130.756138,23.1214273 L127.228138,23.1214273 C126.832138,23.1214273 126.544138,22.8334273 126.544138,22.4734273 L126.544138,20.3854273 C126.544138,19.9894273 126.832138,19.7014273 127.228138,19.7014273 L133.780138,19.7014273 C134.140138,19.7014273 134.428138,20.0254273 134.428138,20.3854273 C134.428138,23.2654273 134.464138,26.2174273 134.464138,29.0974273 C134.464138,29.2774273 134.320138,29.5654273 134.176138,29.6734273 C134.176138,29.6734273 130.468138,32.0494273 125.248138,32.0494273 C118.084138,32.0494273 112.288138,26.3254273 112.288138,19.1254273 Z M138.280138,19.1254273 C138.280138,11.9254273 144.076138,6.12942731 151.240138,6.12942731 C154.696138,6.12942731 157.540138,7.38942731 159.988138,9.47742731 C160.276138,9.76542731 160.312138,10.1974273 160.024138,10.4854273 C159.484138,11.0614273 158.944138,11.6014273 158.404138,12.1774273 C158.116138,12.5014273 157.828138,12.4654273 157.468138,12.1414273 C155.776138,10.6654273 153.544138,9.69342731 151.348138,9.69342731 C146.236138,9.69342731 142.312138,14.0134273 142.312138,19.0534273 C142.312138,24.0574273 146.236138,28.3774273 151.348138,28.3774273 C154.336138,28.3774273 156.388138,27.2974273 156.748138,27.1534273 L156.748138,23.1214273 L153.220138,23.1214273 C152.824138,23.1214273 152.536138,22.8334273 152.536138,22.4734273 L152.536138,20.3854273 C152.536138,19.9894273 152.824138,19.7014273 153.220138,19.7014273 L159.772138,19.7014273 C160.132138,19.7014273 160.420138,20.0254273 160.420138,20.3854273 C160.420138,23.2654273 160.456138,26.2174273 160.456138,29.0974273 C160.456138,29.2774273 160.312138,29.5654273 160.168138,29.6734273 C160.168138,29.6734273 156.460138,32.0494273 151.240138,32.0494273 C144.076138,32.0494273 138.280138,26.3254273 138.280138,19.1254273 Z M166.108138,31.0054273 L166.108138,7.17342731 C166.108138,6.81342731 166.432138,6.48942731 166.792138,6.48942731 L169.168138,6.48942731 C169.528138,6.48942731 169.852138,6.81342731 169.852138,7.17342731 L169.852138,31.0054273 C169.852138,31.3654273 169.528138,31.6894273 169.168138,31.6894273 L166.792138,31.6894273 C166.432138,31.6894273 166.108138,31.3654273 166.108138,31.0054273 Z M176.836138,31.0054273 L176.836138,7.17342731 C176.836138,6.81342731 177.124138,6.48942731 177.520138,6.48942731 L191.920138,6.48942731 C192.316138,6.48942731 192.604138,6.81342731 192.604138,7.17342731 L192.604138,9.18942731 C192.604138,9.54942731 192.316138,9.87342731 191.920138,9.87342731 L180.544138,9.87342731 L180.544138,17.2174273 L190.156138,17.2174273 C190.516138,17.2174273 190.840138,17.5414273 190.840138,17.9014273 L190.840138,19.9174273 C190.840138,20.3134273 190.516138,20.6014273 190.156138,20.6014273 L180.544138,20.6014273 L180.544138,28.3414273 L191.920138,28.3414273 C192.316138,28.3414273 192.604138,28.6654273 192.604138,29.0254273 L192.604138,31.0054273 C192.604138,31.3654273 192.316138,31.6894273 191.920138,31.6894273 L177.520138,31.6894273 C177.124138,31.6894273 176.836138,31.3654273 176.836138,31.0054273 Z M204.124138,19.1254273 C204.124138,11.9254273 209.848138,6.12942731 217.048138,6.12942731 C224.248138,6.12942731 230.008138,11.9254273 230.008138,19.1254273 C230.008138,24.2374273 227.020138,28.6654273 222.664138,30.8254273 L227.020138,37.7374273 C227.344138,38.2414273 227.020138,38.8174273 226.444138,38.8174273 L223.636138,38.8174273 C223.492138,38.8174273 223.204138,38.7094273 223.060138,38.4574273 L219.172138,31.9054273 C218.488138,32.0134273 217.696138,32.0494273 217.048138,32.0494273 C209.848138,32.0494273 204.124138,26.3254273 204.124138,19.1254273 Z M207.724138,19.1254273 C207.724138,24.2734273 211.936138,28.4494273 217.048138,28.4494273 C222.196138,28.4494273 226.408138,24.2734273 226.408138,19.1254273 C226.408138,14.0134273 222.196138,9.72942731 217.048138,9.72942731 C211.936138,9.72942731 207.724138,14.0134273 207.724138,19.1254273 Z M234.868138,22.2934273 L234.868138,7.17342731 C234.868138,6.81342731 235.192138,6.48942731 235.552138,6.48942731 L237.964138,6.48942731 C238.360138,6.48942731 238.648138,6.81342731 238.648138,7.17342731 L238.648138,22.0414273 C238.648138,25.6414273 240.952138,28.4494273 244.624138,28.4494273 C248.332138,28.4494273 250.672138,25.6774273 250.672138,22.1134273 L250.672138,7.17342731 C250.672138,6.81342731 250.960138,6.48942731 251.356138,6.48942731 L253.768138,6.48942731 C254.128138,6.48942731 254.452138,6.81342731 254.452138,7.17342731 L254.452138,22.2934273 C254.452138,27.7654273 250.312138,32.0494273 244.624138,32.0494273 C238.972138,32.0494273 234.868138,27.7654273 234.868138,22.2934273 Z" id="Combined-Shape" fill="url(#linearGradient-1)"></path>
                <path d="M28.4816109,34.0738327 L25.7077414,27.2082648 C27.8048204,25.4735258 29.2855164,22.980719 29.6941369,20.0732333 C30.5630097,13.8908823 26.2555844,8.17473591 20.0732333,7.30586313 C13.8908823,6.43699035 8.17473591,10.7444156 7.30586313,16.9267667 C6.43699035,23.1091177 10.7444156,28.8252641 16.9267667,29.6941369 C17.6240331,29.7921313 18.3153693,29.8242827 18.9944903,29.7953274 L21.7875142,36.7083042 C19.9004963,37.0486735 17.9280008,37.099095 15.9256182,36.8176785 C5.80904367,35.3958867 -1.23947034,26.0421927 0.182321483,15.9256182 C1.60411331,5.80904367 10.9578073,-1.23947034 21.0743818,0.182321483 C31.1909563,1.60411331 38.2394703,10.9578073 36.8176785,21.0743818 C36.0366048,26.6320102 32.8617227,31.2637132 28.4816109,34.0738327 Z" id="Combined-Shape" fill="#840080"></path>
            </g>
        </g>
    </g>
</svg>