<?xml version="1.0" encoding="utf-8"?>
<!-- Generator: Adobe Illustrator 22.1.0, SVG Export Plug-In . SVG Version: 6.00 Build 0)  -->
<svg version="1.1" id="Capa_1" xmlns="http://www.w3.org/2000/svg" xmlns:xlink="http://www.w3.org/1999/xlink" x="0px" y="0px"
	 viewBox="0 0 512 512" style="enable-background:new 0 0 512 512;" xml:space="preserve">
<style type="text/css">
	.st0{fill:#E88ED3;}
	.st1{fill:#FCDEEF;}
	.st2{fill:#FFFFFF;}
	.st3{fill:#FF1493;}
</style>
<g transform="translate(-1)">
	<g transform="translate(2 1)">
		<path class="st0" d="M502.5,455.5l-30.7-12.8l-71.7-29.9H118.5c-9.4,0-17-7.7-17.1-17.1V173.9c0-9.4,7.7-17,17.1-17.1h332.8
			c9.4,0,17,7.7,17.1,17.1v196.3L502.5,455.5z"/>
		<path class="st1" d="M471.8,442.7l-71.7-29.9H118.5c-9.4,0-17-7.7-17.1-17.1V173.9c0-9.4,7.7-17,17.1-17.1h307.2
			c9.4,0,17,7.7,17.1,17.1v196.3L471.8,442.7z"/>
		<path class="st0" d="M408.6,71.5v221.9c0,9.4-7.7,17-17.1,17.1H109.9L7.5,353.1l5.1-12.8l29-72.5V71.5c0-9.4,7.7-17,17.1-17.1
			h332.8C401,54.5,408.6,62.1,408.6,71.5z"/>
		<path class="st1" d="M383,71.5v221.9c0,9.4-7.7,17-17.1,17.1H84.3l-71.7,29.9l29-72.5V71.5c0-9.4,7.7-17,17.1-17.1h307.2
			C375.4,54.5,383,62.1,383,71.5z"/>
		<g>
			<path class="st2" d="M101.4,156.9h34.1c9.4,0,17.1,7.6,17.1,17.1V191c0,9.4-7.6,17.1-17.1,17.1h-34.1c-9.4,0-17.1-7.6-17.1-17.1
				v-17.1C84.3,164.5,92,156.9,101.4,156.9z"/>
			<path class="st2" d="M212.3,156.9h34.1c9.4,0,17.1,7.6,17.1,17.1V191c0,9.4-7.6,17.1-17.1,17.1h-34.1c-9.4,0-17.1-7.6-17.1-17.1
				v-17.1C195.3,164.5,202.9,156.9,212.3,156.9z"/>
			<path class="st2" d="M323.3,156.9h34.1c9.4,0,17.1,7.6,17.1,17.1V191c0,9.4-7.6,17.1-17.1,17.1h-34.1c-9.4,0-17.1-7.6-17.1-17.1
				v-17.1C306.2,164.5,313.8,156.9,323.3,156.9z"/>
		</g>
		<g>
			<path class="st2" d="M118.5,412.9h25.6c-9.4,0-17-7.7-17.1-17.1V314l-25.6,10.7v71.1C101.4,405.2,109.1,412.9,118.5,412.9z"/>
			<path class="st2" d="M38.3,340.3l29-72.5V71.5c0-9.4,7.7-17,17.1-17.1H58.7c-9.4,0-17,7.7-17.1,17.1v196.3l-29,72.5l-5.1,12.8
				L38.3,340.3z"/>
		</g>
	</g>
	<g>
		<polygon class="st2" points="35.1,268.8 35.1,157.9 35.1,72.5 52.2,72.5 52.2,157.9 52.2,268.8 		"/>
		<g>
			<path class="st3" d="M40.4,208.4c0.5,0.2,1,0.4,1.5,0.5c0.6,0.1,1.1,0.2,1.7,0.2c2.3,0,4.4-0.9,6.1-2.5c0.8-0.8,1.4-1.8,1.8-2.8
				c1.3-3.2,0.6-6.8-1.8-9.3c-0.8-0.8-1.8-1.4-2.8-1.8c-1-0.4-2.1-0.7-3.2-0.7c-3.5,0-6.6,2.1-7.9,5.3c-1.3,3.2-0.6,6.9,1.9,9.3
				l1.3,1C39.4,208,39.9,208.2,40.4,208.4z"/>
			<path class="st3" d="M9.5,362.7c1.1,0,2.2-0.2,3.3-0.7l100.8-42h279.9c14.1,0,25.6-11.5,25.6-25.6V72.5
				c0-14.1-11.5-25.6-25.6-25.6H60.7c-14.1,0-25.6,11.5-25.6,25.6v93.9c0,4.7,3.8,8.5,8.5,8.5s8.5-3.8,8.5-8.5V72.5
				c0-4.7,3.8-8.5,8.5-8.5h332.8c4.7,0,8.5,3.8,8.5,8.5v221.9c0,4.7-3.8,8.5-8.5,8.5H111.9c-1.1,0-2.2,0.2-3.3,0.7L25,338.5
				L51.6,272c0.4-1,0.6-2.1,0.6-3.2v-34.1c0-4.7-3.8-8.5-8.5-8.5s-8.5,3.8-8.5,8.5v32.5L1.6,351c-1.1,2.6-0.7,5.6,0.9,8
				C4.1,361.3,6.7,362.7,9.5,362.7z"/>
			<path class="st3" d="M444.7,166.4h8.5c4.7,0,8.5,3.8,8.5,8.5v196.3c0.2,1.1,0.4,2.1,0.6,3.2l26.6,66.5L405.4,406
				c-0.5-0.2-1.1-0.3-1.6-0.3c-0.6-0.2-1.1-0.3-1.7-0.4H120.5c-4.7,0-8.5-3.8-8.5-8.5v-25.6c0-4.7-3.8-8.5-8.5-8.5
				c-4.7,0-8.5,3.8-8.5,8.5v25.6c0,14.1,11.5,25.6,25.6,25.6h279.9l100.8,42c3.2,1.3,6.9,0.6,9.3-1.8c2.5-2.4,3.2-6.1,1.9-9.3
				l-33.5-83.8V174.9c0-14.1-11.5-25.6-25.6-25.6h-8.5c-4.7,0-8.5,3.8-8.5,8.5C436.2,162.6,440,166.4,444.7,166.4z"/>
			<path class="st3" d="M137.5,217.6c14.1,0,25.6-11.5,25.6-25.6v-17.1c0-14.1-11.5-25.6-25.6-25.6h-34.1
				c-14.1,0-25.6,11.5-25.6,25.6V192c0,14.1,11.5,25.6,25.6,25.6H137.5z M94.9,192v-17.1c0-4.7,3.8-8.5,8.5-8.5h34.1
				c4.7,0,8.5,3.8,8.5,8.5V192c0,4.7-3.8,8.5-8.5,8.5h-34.1C98.7,200.5,94.9,196.7,94.9,192z"/>
			<path class="st3" d="M248.5,217.6c14.1,0,25.6-11.5,25.6-25.6v-17.1c0-14.1-11.5-25.6-25.6-25.6h-34.1
				c-14.1,0-25.6,11.5-25.6,25.6V192c0,14.1,11.5,25.6,25.6,25.6H248.5z M205.8,192v-17.1c0-4.7,3.8-8.5,8.5-8.5h34.1
				c4.7,0,8.5,3.8,8.5,8.5V192c0,4.7-3.8,8.5-8.5,8.5h-34.1C209.6,200.5,205.8,196.7,205.8,192z"/>
			<path class="st3" d="M359.4,217.6c14.1,0,25.6-11.5,25.6-25.6v-17.1c0-14.1-11.5-25.6-25.6-25.6h-34.1
				c-14.1,0-25.6,11.5-25.6,25.6V192c0,14.1,11.5,25.6,25.6,25.6H359.4z M316.7,192v-17.1c0-4.7,3.8-8.5,8.5-8.5h34.1
				c4.7,0,8.5,3.8,8.5,8.5V192c0,4.7-3.8,8.5-8.5,8.5h-34.1C320.6,200.5,316.7,196.7,316.7,192z"/>
		</g>
	</g>
</g>
</svg>
