<?xml version="1.0" encoding="utf-8"?>
<!-- Generator: Adobe Illustrator 22.1.0, SVG Export Plug-In . SVG Version: 6.00 Build 0)  -->
<svg version="1.1" id="Capa_1" xmlns="http://www.w3.org/2000/svg" xmlns:xlink="http://www.w3.org/1999/xlink" x="0px" y="0px"
	 viewBox="0 0 512 512" style="enable-background:new 0 0 512 512;" xml:space="preserve">
<style type="text/css">
	.st0{fill:#E88ED3;}
	.st1{fill:#FCDEEF;}
	.st2{fill:#FFFFFF;}
	.st3{fill:#FF1493;}
</style>
<g transform="translate(0 -1)">
	<g transform="translate(1 2)">
		<path class="st0" d="M499.4,430.2l-26,43.3c-4.4,7.4-10.5,13.6-17.7,18.1c-4.1,2.6-8.7,4.6-13.4,5.9
			C399,509.4,303.7,511.9,151,359.1S0.6,111,12.5,67.8c1.3-4.7,3.3-9.2,5.9-13.4c4.5-7.3,10.7-13.4,18.1-17.7l43.3-26
			c9.9-5.9,22.7-3,29.1,6.6l37.6,56.3l31.5,47.3c6.2,9.4,4.2,22.1-4.7,29.1l-10.4,8.1l-28.4,22c-8.4,6.5-10.8,18.2-5.7,27.5
			c11.4,20.5,22.2,44.6,75.6,98.1s77.7,64.2,98.1,75.6c9.3,5.1,20.9,2.6,27.5-5.7l22-28.4l8.1-10.4c7-8.9,19.7-10.9,29.1-4.7
			l48.7,32.5l54.9,36.6C502.4,407.5,505.3,420.3,499.4,430.2z"/>
		<path class="st1" d="M482.3,447.3l-26,43.3c-0.3,0.3-0.4,0.7-0.7,1c-4.1,2.6-8.7,4.6-13.4,5.9C399,509.4,303.7,511.9,151,359.1
			S0.6,111,12.5,67.8c1.3-4.7,3.3-9.2,5.9-13.4c0.3-0.3,0.7-0.4,1-0.7l43.3-26c9.9-5.9,22.7-3,29.1,6.6l37.6,56.3l31.5,47.3
			c6.1,9.5,4.1,22-4.7,29.1l-28.6,22.2l-10.2,7.9c-8.4,6.5-10.8,18.2-5.7,27.5c11.4,20.5,22.2,44.6,75.6,98.1s77.7,64.2,98.1,75.6
			c9.3,5.1,21,2.7,27.5-5.7l7.9-10.2l22.2-28.6c7-8.8,19.6-10.8,29.1-4.7l48.7,32.5l54.9,36.6C485.4,424.6,488.2,437.4,482.3,447.3z
			"/>
		<path class="st2" d="M417.2,501.9c-52.4-4.1-132-34.2-240.6-142.9C23.7,206.3,26.2,111,38.1,67.8c1.3-4.7,3.3-9.2,5.9-13.4
			c4.5-7.3,10.7-13.4,18.1-17.7l41.5-24.9c-7-5.1-16.3-5.5-23.8-1.1l-43.3,26c-7.4,4.4-13.6,10.5-18.1,17.7
			c-2.6,4.2-4.6,8.7-5.9,13.4C0.6,111-1.9,206.3,151,359.1C279.1,487.2,366.8,506.2,417.2,501.9z"/>
	</g>
	<g>
		<path class="st2" d="M145.9,367.1c-26.4-26.5-51.1-54.6-73.8-84.3c-23.5-30.4-42.6-64-56.8-99.6C8.2,165,3.4,146,1,126.6
			c-2.3-19.8-0.8-39.8,4.2-59.1L21.7,72c-4.4,17.2-5.7,35.1-3.6,52.7c2.2,17.9,6.7,35.6,13.2,52.4c13.7,34.2,32,66.3,54.5,95.4
			c22.2,29,46.4,56.6,72.2,82.5L145.9,367.1z"/>
		<g>
			<path class="st3" d="M1.1,126.6C3.4,146,8.2,165,15.3,183.2c14.2,35.7,33.4,69.2,56.8,99.6c1.6,2.4,3.4,4.7,5.2,6.9
				c2.9,3.7,8.3,4.4,12.1,1.5c3.7-2.9,4.3-8.2,1.4-11.9c-1.8-2.2-3.5-4.4-5.1-6.7c-22.5-29.1-40.8-61.3-54.5-95.5
				c-6.6-16.8-11-34.4-13.2-52.4c-2-17.6-0.8-35.5,3.6-52.7C24.8,61.1,32,51.7,41.9,46l43.3-26c6-3.6,13.7-1.9,17.6,4l69.1,103.6
				c3.8,5.7,2.5,13.4-2.9,17.6l-38.8,30.2c-11.8,9-15.2,25.4-7.9,38.3l3.1,5.6c10.9,20,24.5,44.9,74,94.4s74.4,63.1,94.4,74l5.6,3.1
				c13,7.3,29.3,3.9,38.3-7.9l30.2-38.8c4.2-5.4,11.9-6.6,17.6-2.9l103.6,69.1c5.8,3.9,7.6,11.6,4,17.6l-26,43.3
				c-5.8,9.8-15.1,17.1-26.1,20.2c-52.5,14.4-144.2,2.5-283-136.3l-23.4-24.4c-3.2-3.4-8.6-3.6-12-0.5c-1.7,1.5-2.7,3.7-2.8,5.9
				s0.8,4.5,2.3,6.1l23.9,24.8c115,115,200.6,145.9,259.5,145.9c13.5,0.1,27-1.7,40.1-5.2c15.2-4.3,28.2-14.3,36.2-27.9l26.1-43.3
				c8.3-13.8,4.3-31.7-9.1-40.6L395,326.9c-13.2-8.7-30.8-5.8-40.5,6.6l-30.2,38.8c-3.9,5.1-10.9,6.6-16.5,3.5l-5.7-3.2
				c-19-10.4-42.7-23.3-90.5-71s-60.7-71.4-71-90.5l-3.1-5.7c-3.2-5.6-1.7-12.7,3.4-16.6l38.8-30.2c12.4-9.7,15.3-27.4,6.6-40.5
				L117,14.4C108.1,1,90.2-3,76.4,5.3l-43.3,26c-13.6,8-23.6,21-27.9,36.2C0.2,86.8-1.2,106.8,1.1,126.6z"/>
			<path class="st3" d="M106.3,302.5c-1.1-0.1-2.2,0.1-3.3,0.4c-1.1,0.3-2.1,0.8-2.9,1.5c-1.7,1.5-2.8,3.6-3.1,5.8
				c-0.1,2.3,0.7,4.5,2.1,6.2c1.5,1.7,3.6,2.8,5.9,3l1.6-0.1c0.6-0.1,1.2-0.2,1.7-0.4c0.5-0.1,1-0.3,1.5-0.6c0.5-0.3,1-0.6,1.4-1
				c1.7-1.5,2.7-3.6,2.9-5.8C114.4,306.9,110.9,302.9,106.3,302.5L106.3,302.5L106.3,302.5z"/>
			<path class="st3" d="M290.1,86.4c80.1,0.1,145,65,145.1,145.1c0,4.7,3.8,8.5,8.5,8.5s8.5-3.8,8.5-8.5
				c-0.1-89.5-72.6-162-162.1-162.1c-4.7,0-8.5,3.8-8.5,8.5S285.4,86.4,290.1,86.4z"/>
			<path class="st3" d="M290.1,137.6c51.8,0.1,93.8,42.1,93.9,93.9c0,4.7,3.8,8.5,8.5,8.5c4.7,0,8.5-3.8,8.5-8.5
				c-0.1-61.2-49.7-110.9-110.9-110.9c-4.7,0-8.5,3.8-8.5,8.5C281.6,133.8,285.4,137.6,290.1,137.6z"/>
			<path class="st3" d="M290.1,188.8c23.6,0,42.6,19.1,42.7,42.7c0,4.7,3.8,8.5,8.5,8.5s8.5-3.8,8.5-8.5c0-33-26.8-59.7-59.7-59.7
				c-4.7,0-8.5,3.8-8.5,8.5C281.6,185,285.4,188.8,290.1,188.8z"/>
		</g>
	</g>
</g>
</svg>
