<?xml version="1.0" encoding="utf-8"?>
<!-- Generator: Adobe Illustrator 22.1.0, SVG Export Plug-In . SVG Version: 6.00 Build 0)  -->
<svg version="1.1" id="Layer_1" xmlns="http://www.w3.org/2000/svg" xmlns:xlink="http://www.w3.org/1999/xlink" x="0px" y="0px"
	 viewBox="0 0 511.8 511.8" style="enable-background:new 0 0 511.8 511.8;" xml:space="preserve">
<style type="text/css">
	.st0{fill:#FCDEEF;}
	.st1{fill:#FFFFFF;}
	.st2{fill:#E88ED3;}
	.st3{fill:#FF1493;}
</style>
<g transform="translate(1)">
	<g>
		<path class="st0" d="M509.1,110.9l-11.9,4.3c-8.5,19.6-32.4,38.4-54.6,46.9v8.5c0,140.8-91.3,258.6-213.3,285
			c-8.5,1.7-4.3,3.4,0,4.3c134-14.5,238.9-138.2,238.9-289.3v-8.5c23-8.5,35.8-29,42.7-49.5C510.8,111.7,510,110.9,509.1,110.9"/>
		<path class="st0" d="M331.6,59.7c-51.2,0.9-85.3,49.5-85.3,105.8v13.7c-74.2-13.7-151-46.9-179.2-76.8
			c-32.4,63.1-13.7,90.5,25.6,119.5c-26.5,0-31.6,6.8-48.6-7.7c-1.7-0.9-3.4,0-2.6,1.7C56,268.7,88.4,296,126.8,308
			c-35,0-41.8,16.2-65.7,0c-1.7-0.9-3.4,0.9-2.6,1.7c18.8,52.1,39.3,57.2,93.9,57.2c-27.3,20.5-46.9,41-116.1,42.7
			c-2.6,0-4.3,3.4-1.7,5.1c25.6,21.3,88.7,37.5,177.5,37.5c17.9,0-16.2-1.7,0-5.1c122-26.5,213.3-144.2,213.3-285v-8.5
			c23-8.5,48.6-29,55.5-49.5c0-0.9-0.9-2.6-1.7-1.7l-36.7,17.1c-0.9,0-1.7-0.9-0.9-1.7c51.2-42.7,21.3-11.1,36.7-56.3
			c0-0.9-0.9-1.7-1.7-1.7c-23,9.4-42.7,18.8-59.7,23.9c-2.6,0.9-6,0.9-8.5-0.9C397.3,76.7,353.8,59.7,331.6,59.7"/>
	</g>
	<path class="st1" d="M92.7,221.8c-39.3-29-58.9-56.3-25.6-119.5c8.5,8.5,20.5,17.1,35.8,26.5c-22.2-14.5-41.8-30.7-61.4-52.1
		c-32.4,63.1,3.4,116.1,42.7,145.1"/>
	<path class="st2" d="M492,102.3l-11.9,4.3c-8.5,19.6-32.4,38.4-54.6,46.9v8.5c0,140.8-91.3,258.6-213.3,285c-8.5,1.7-4.3,3.4,0,4.3
		c134-14.5,238.9-138.2,238.9-289.3v-8.5c23-8.5,35.8-29,42.7-49.5C493.8,103.2,492.9,102.3,492,102.3"/>
	<path class="st1" d="M33.8,414.6c-1.7-1.7-0.9-5.1,2.6-5.1c69.1-1.7,88.7-22.2,116.1-42.7c-54.6,0-75.9-6-93.9-57.2
		c-0.9-1.7,0.9-2.6,2.6-1.7c24.7,15.4,31.6,0,65.7,0c-38.4-11.1-70.8-39.3-85.3-91.3c-8.5-2.6-15.4-6.8-22.2-12.8
		c-1.7-0.9-3.4,0-2.6,1.7c14.5,52.9,64,91.3,102.4,102.4c-35,0-58,5.1-82.8-10.2c-2.6-1.7-4.3-0.9-3.4,0.9
		c18.8,52.1,56.3,68.3,110.9,68.3c-27.3,20.5-64,41-133.1,42.7c-2.6,0-4.3,3.4-1.7,5.1c25.6,21.3,88.7,37.5,177.5,37.5
		c2.6,0,5.1,0,7.7,0C114.9,449.6,58.5,434.3,33.8,414.6"/>
	<path class="st3" d="M186.6,460.7c-84.5,0-152.7-14.5-183.5-39.3c-3.4-3.4-5.1-7.7-3.4-12.8c1.7-4.3,6-7.7,11.1-7.7
		c50.3-0.9,82.8-12.8,107.5-27.3c-47.8-6-77.7-29-93-72.5c-1.7-4.3,0-8.5,3.4-11.1s8.5-2.6,11.9-0.9c12.8,8.5,25.6,10.2,41,10.2
		c-32.4-19.6-62.3-52.1-74.2-92.2c-0.9-4.3,0.9-8.5,4.3-11.1c4.3-2.6,8.5-1.7,11.9,0.9c9.4,7.7,19.6,12.8,35,15.4
		C25.3,178.3,4.8,127.9,33.8,72.5c1.7-1.7,3.4-3.4,6.8-4.3c2.6,0,5.1,0.9,7.7,2.6c52.9,55.5,101.5,81.1,190.3,98.1v-3.4
		C237.8,103.2,286.4,52,347,51.1c23.9,0,57.2,17.1,70.8,24.7c0.9,0,1.7,0.9,1.7,0c17.1-5.1,37.5-13.7,61.4-23.9
		c3.4-1.7,7.7-0.9,10.2,1.7s3.4,6,1.7,9.4c-4.3,11.9-11.1,24.7-21.3,36.7l17.1-6c3.4-0.9,7.7,0,10.2,2.6s3.4,6.8,2.6,10.2
		c-7.7,24.7-23,42.7-41.8,52.1v3.4c0,23.9-2.6,46.9-7.7,70c-0.9,4.3-6,7.7-10.2,6.8s-7.7-6-6.8-10.2c5.1-21.3,6.8-44.4,6.8-66.6
		v-8.5c0-3.4,2.6-6.8,5.1-7.7c16.2-6,25.6-18.8,31.6-29.9l-33.3,11.1c-4.3,1.7-9.4,0-11.1-4.3c-0.9-4.3,0-9.4,3.4-11.9
		c13.7-11.1,23.9-23,31.6-35.8c-17.1,6.8-32.4,12.8-45.2,17.1c-5.1,1.7-10.2,0.9-15.4-1.7c-9.4-5.1-41-22.2-60.6-22.2c0,0,0,0-0.9,0
		c-51.2,0.9-92.2,44.4-92.2,97.3v13.7c0,2.6-0.9,5.1-3.4,6.8c-1.7,1.7-4.3,1.7-6.8,1.7C150.7,170.6,98.7,145.8,44,92.1
		C18.4,156.9,71.4,202.2,89.3,215c3.4,2.6,4.3,6,3.4,9.4c-0.9,3.4-5.1,6-8.5,6c-17.1,0-35.8-1.7-52.9-9.4
		c18.8,39.3,57.2,68.3,89.6,77.7c4.3,0.9,6.8,5.1,6,9.4c-0.9,4.3-4.3,7.7-8.5,7.7c-6.8,0-13.7,0-20.5,0.9
		c-17.9,0.9-34.1,0.9-49.5-4.3c17.1,32.4,46.9,46.1,95.6,46.1c3.4,0,6.8,2.6,8.5,6c0.9,3.4,0,7.7-3.4,9.4
		c-27.3,20.5-61.4,39.3-120.3,43.5c28.2,13.7,80.2,26.5,157.9,26.5c98.1,0,186-60.6,229.5-157c1.7-4.3,6.8-6,11.1-4.3
		c4.3,1.7,6,6.8,4.3,11.1C385.4,396.7,291.5,460.7,186.6,460.7z M14.2,407.8L14.2,407.8L14.2,407.8z M31.2,303.7L31.2,303.7
		L31.2,303.7z M13.3,209.8L13.3,209.8L13.3,209.8z M24.4,202.2L24.4,202.2L24.4,202.2z M494.6,110.9L494.6,110.9L494.6,110.9z
		 M486.9,67.3L486.9,67.3L486.9,67.3z"/>
	<path class="st3" d="M442.5,264.5c0-5.1-3.4-8.5-8.5-8.5s-8.5,3.4-8.5,8.5s3.4,8.5,8.5,8.5C439.1,273,442.5,269.6,442.5,264.5"/>
</g>
</svg>
