<?xml version="1.0" encoding="utf-8"?>
<!-- Generator: Adobe Illustrator 22.1.0, SVG Export Plug-In . SVG Version: 6.00 Build 0)  -->
<svg version="1.1" id="Layer_1" xmlns="http://www.w3.org/2000/svg" xmlns:xlink="http://www.w3.org/1999/xlink" x="0px" y="0px"
	 viewBox="0 0 511.1 511.1" style="enable-background:new 0 0 511.1 511.1;" xml:space="preserve">
<style type="text/css">
	.st0{fill:#FCDEEF;}
	.st1{fill:#FFFFFF;}
	.st2{fill:#E88ED3;}
	.st3{fill:#FF1493;}
</style>
<g transform="translate(1)">
	<path class="st0" d="M471.7,148.9c0,0-4.3-36.7-17.9-52.9c-17.1-21.3-35.8-21.3-44.4-22.2c-62.3-5.1-155.3-6-155.3-6l0,0
		c0,0-93,0.9-155.3,6c-8.5,0.9-27.3,1.7-44.4,22.2c-13.7,16.2-17.9,52.9-17.9,52.9s-4.3,43.5-4.3,87v40.1c0,43.5,4.3,86.2,4.3,86.2
		s4.3,36.7,17.9,52.9c17.1,21.3,39.3,20.5,48.6,23c35.8,4.3,151,5.1,151,5.1s93,0,155.3-6c8.5-0.9,27.3-1.7,44.4-22.2
		c13.7-16.2,17.9-52.9,17.9-52.9s4.3-43.5,4.3-86.2v-40.1C476,192.4,471.7,148.9,471.7,148.9"/>
	<path class="st1" d="M54.5,415.1c-13.7-16.2-17.9-52.9-17.9-52.9s-4.3-43.5-4.3-86.2v-40.1c0-43.5,4.3-86.2,4.3-86.2
		s4.3-37.5,17.9-53.8c17.1-21.3,35.8-21.3,44.4-22.2c62.3-5.1,155.3-6,155.3-6l0,0c0,0-104.1,0.9-173.2,6
		c-9.4,0.9-30.7,1.7-49.5,22.2c-14.5,16.2-19.6,52.9-19.6,52.9s-5.1,43.5-5.1,87v40.1c0,43.5,5.1,86.2,5.1,86.2s5.1,36.7,19.6,52.9
		c18.8,21.3,43.5,20.5,54.6,23c39.3,4.3,168.1,5.1,168.1,5.1s-115.2-0.9-151-5.1C93.7,435.6,71.5,436.5,54.5,415.1"/>
	<path class="st2" d="M496.5,148.9c0,0-5.1-36.7-19.6-52.9c-18.8-21.3-40.1-21.3-49.5-22.2c-69.1-5.1-173.2-6-173.2-6l0,0
		c0,0,93,0.9,155.3,6c8.5,0.9,27.3,1.7,44.4,22.2c13.7,16.2,17.9,52.9,17.9,52.9s4.3,43.5,4.3,87v40.1c0,43.5-4.3,86.2-4.3,86.2
		s-4.3,36.7-17.9,52.9c-17.1,21.3-35.8,21.3-44.4,22.2c-33.3,2.6-75.1,4.3-107.5,5.1l0,0c35.8-0.9,86.2-1.7,125.4-5.1
		c9.4-0.9,30.7-1.7,49.5-22.2c14.5-16.2,19.6-52.9,19.6-52.9s5.1-42.7,5.1-86.2v-40.1C501.6,192.4,496.5,148.9,496.5,148.9"/>
	<polygon class="st2" points="194.4,169.4 194.4,354.6 356.5,264.1 	"/>
	<path class="st3" d="M254.1,451.8c-5.1,0-129.7-1.7-169-5.1c-2.6-0.9-4.3-0.9-6.8-0.9c-13.7-1.7-35-4.3-52.9-24.7
		C9.2,403.2,4.1,365.7,4.1,363.9c0-0.9-5.1-44.4-5.1-87v-40.1c0-43.5,5.1-87,5.1-87c0-1.7,5.1-40.1,22.2-58
		C45.1,70.4,66.4,67.8,78.4,67h2.6c17.9-1.7,39.3-2.6,63.1-3.4c5.1,0,8.5,3.4,8.5,8.5s-3.4,8.5-8.5,8.5c-23.9,0.9-45.2,1.7-62.3,3.4
		h-2.6C69,83.2,52.8,84.9,37.4,102c-11.1,11.9-16.2,39.3-17.9,48.6c0,0-5.1,42.7-5.1,85.3v40.1c0,41.8,5.1,84.5,5.1,85.3
		c0.9,9.4,6.8,36.7,17.1,47.8c13.7,15.4,30.7,17.9,42.7,18.8c2.6,0,5.1,0.9,7.7,0.9c38.4,4.3,166.4,6,167.3,6s104.1,0,172.4-5.1h2.6
		c9.4-0.9,26.5-2.6,41-19.6c11.1-11.9,16.2-39.3,17.9-48.6c0,0,5.1-42.7,5.1-85.3v-40.1c0-41.8-5.1-84.5-5.1-85.3
		c-0.9-9.4-6.8-36.7-17.1-47.8c-14.5-17.1-31.6-18.8-41-19.6h-3.4c-68.3-6-171.5-6.8-172.4-6.8c0,0-27.3,0-42.7,0
		c-5.1,0-8.5-3.4-8.5-8.5s3.4-8.5,8.5-8.5c15.4,0,42.7,0,42.7,0c1.7,0,105,0.9,174.1,6h3.4c11.1,0.9,32.4,3.4,52.1,24.7
		c16.2,17.9,21.3,55.5,21.3,57.2c0,0.9,5.1,44.4,5.1,87v40.1c0,43.5-5.1,87-5.1,87c0,1.7-5.1,40.1-22.2,58
		c-18.8,21.3-40.1,23.9-52.1,24.7h-2.6C359.1,451.8,255,451.8,254.1,451.8z"/>
	<path class="st3" d="M185.9,67.8c0-5.1-3.4-8.5-8.5-8.5c-5.1,0-8.5,3.4-8.5,8.5s3.4,8.5,8.5,8.5C182.5,76.4,185.9,73,185.9,67.8"/>
	<path class="st3" d="M194.4,363.1c-1.7,0-2.6,0-4.3-0.9c-2.6-1.7-4.3-4.3-4.3-7.7V169.4c0-3.4,1.7-6,4.3-7.7s6-1.7,8.5,0
		l162.1,94.7c2.6,1.7,4.3,4.3,4.3,7.7s-1.7,6-4.3,7.7l-162.1,90.5C197,363.1,196.1,363.1,194.4,363.1z M202.9,183.9v156.2
		l136.5-75.9L202.9,183.9z"/>
</g>
</svg>
